<?xml version="1.0" encoding="UTF-8"?>
<svg width="24px" height="14px" viewBox="0 0 24 14" version="1.1" xmlns="http://www.w3.org/2000/svg" xmlns:xlink="http://www.w3.org/1999/xlink">
    <!-- Generator: Sketch 64 (93537) - https://sketch.com -->
    <title>Shape Copy 11</title>
    <desc>Created with Sketch.</desc>
    <g id="ButterflyExercise" stroke="none" stroke-width="1" fill="none" fill-rule="evenodd">
        <g id="Page1" transform="translate(-242.000000, -2320.000000)" fill="#FFFFFF">
            <g id="Button" transform="translate(84.000000, 2296.000000)">
                <path d="M158,30.9985 C158,31.5505 158.448,31.9985 159,31.9985 L178.586,31.9985 L174.294,36.2905 C173.904,36.6805 173.904,37.3145 174.294,37.7045 C174.684,38.0945 175.318,38.0945 175.708,37.7045 L181.708,31.7045 C181.8,31.6125 181.874,31.5025 181.924,31.3805 C181.972,31.2585 182,31.1305 182,31.0025 L182,30.9985 L182,30.9985 C182,30.8685 181.974,30.7385 181.922,30.6165 C181.872,30.4945 181.798,30.3845 181.706,30.2925 L175.706,24.2925 C175.316,23.9025 174.682,23.9025 174.292,24.2925 C173.902,24.6825 173.902,25.3165 174.292,25.7065 L178.586,29.9985 L159,29.9985 C158.448,29.9985 158,30.4465 158,30.9985 L158,30.9985 Z" id="Shape-Copy-11"></path>
            </g>
        </g>
    </g>
</svg>