<?xml version="1.0" encoding="UTF-8"?>
<svg width="70px" height="70px" viewBox="0 0 70 70" version="1.1" xmlns="http://www.w3.org/2000/svg" xmlns:xlink="http://www.w3.org/1999/xlink">
    <!-- Generator: Sketch 64 (93537) - https://sketch.com -->
    <title>Happy</title>
    <desc>Created with Sketch.</desc>
    <g id="ButterflyExercise" stroke="none" stroke-width="1" fill="none" fill-rule="evenodd">
        <g id="Page1" transform="translate(-85.000000, -36.000000)" fill="#AEEA7E">
            <g id="Awesome" transform="translate(80.000000, 31.000000)">
                <g id="Mask-+-Smiley">
                    <path d="M56.0836667,50.7426667 C55.89,51.0413333 51.2186667,58.06 40.42,58.06 C29.717,58.06 24.6338333,51.1626667 24.4226667,50.8686667 C23.4065,49.457 23.7285,47.4888333 25.1413333,46.4726667 C26.546,45.4623333 28.499,45.775 29.5198333,47.168 C29.6948333,47.399 33.098,51.76 40.42,51.76 C47.714,51.76 50.7671667,47.3628333 50.7963333,47.3173333 C51.7425,45.8566667 53.6931667,45.4413333 55.1526667,46.3863333 C56.6133333,47.3325 57.0298333,49.2831667 56.0836667,50.7426667 M28.5783333,26.9065 C31.1216667,26.9065 33.1843333,28.968 33.1843333,31.5113333 C33.1843333,34.0546667 31.1216667,36.1173333 28.5783333,36.1173333 C26.035,36.1173333 23.9735,34.0546667 23.9735,31.5113333 C23.9735,28.968 26.035,26.9065 28.5783333,26.9065 M51.6795,26.9065 C54.2216667,26.9065 56.2843333,28.968 56.2843333,31.5113333 C56.2843333,34.0546667 54.2216667,36.1173333 51.6795,36.1173333 C49.1361667,36.1173333 47.0735,34.0546667 47.0735,31.5113333 C47.0735,28.968 49.1361667,26.9065 51.6795,26.9065 M40,5 C20.6706667,5 5,20.6706667 5,40 C5,59.3293333 20.6706667,75 40,75 C59.3293333,75 75,59.3293333 75,40 C75,20.6706667 59.3293333,5 40,5" id="Happy"></path>
                </g>
            </g>
        </g>
    </g>
</svg>