<?xml version="1.0" encoding="UTF-8"?>
<svg width="82px" height="82px" viewBox="0 0 82 82" version="1.1" xmlns="http://www.w3.org/2000/svg" xmlns:xlink="http://www.w3.org/1999/xlink">
    <!-- Generator: Sketch 64 (93537) - https://sketch.com -->
    <title>VeryHappy</title>
    <desc>Created with Sketch.</desc>
    <g id="ButterflyExercise" stroke="none" stroke-width="1" fill="none" fill-rule="evenodd">
        <g id="Page1" transform="translate(-718.000000, -110.000000)" fill="#34EA7E">
            <g id="Awesome" transform="translate(86.000000, 35.000000)">
                <g id="Mask-+-Smiley">
                    <path d="M673.300667,142.255033 C662.3769,142.255033 653.5209,133.4086 653.5209,122.475267 L693.080433,122.475267 C693.080433,133.4086 684.224433,142.255033 673.300667,142.255033 M659.620333,100.6619 C662.601033,100.6619 665.015933,103.0768 665.015933,106.056133 C665.015933,109.035467 662.601033,111.451733 659.620333,111.451733 C656.642367,111.451733 654.2261,109.035467 654.2261,106.056133 C654.2261,103.0768 656.642367,100.6619 659.620333,100.6619 M686.6817,100.6619 C689.661033,100.6619 692.075933,103.0768 692.075933,106.056133 C692.075933,109.035467 689.661033,111.451733 686.6817,111.451733 C683.702367,111.451733 681.287467,109.035467 681.287467,106.056133 C681.287467,103.0768 683.702367,100.6619 686.6817,100.6619 M673,75 C650.357067,75 632,93.3570667 632,116 C632,138.642933 650.357067,157 673,157 C695.6443,157 714,138.642933 714,116 C714,93.3570667 695.6443,75 673,75" id="VeryHappy"></path>
                </g>
            </g>
        </g>
    </g>
</svg>