<?xml version="1.0" encoding="UTF-8"?>
<svg width="115px" height="115px" viewBox="0 0 115 115" version="1.1" xmlns="http://www.w3.org/2000/svg" xmlns:xlink="http://www.w3.org/1999/xlink">
    <!-- Generator: Sketch 64 (93537) - https://sketch.com -->
    <title>VeryHappy</title>
    <desc>Created with Sketch.</desc>
    <g id="ButterflyExercise" stroke="none" stroke-width="1" fill="none" fill-rule="evenodd">
        <g id="Page1" transform="translate(-82.000000, -60.000000)" fill="#34EA7E">
            <g id="Awesome" transform="translate(79.000000, 57.000000)">
                <g id="Mask-+-Smiley">
                    <g id="Group">
                        <path d="M60.9216667,97.3210833 C45.60175,97.3210833 33.18175,84.9145 33.18175,69.5811667 L88.6615833,69.5811667 C88.6615833,84.9145 76.2415833,97.3210833 60.9216667,97.3210833 M41.7358333,38.98925 C45.9160833,38.98925 49.3028333,42.376 49.3028333,46.5543333 C49.3028333,50.7326667 45.9160833,54.1213333 41.7358333,54.1213333 C37.5594167,54.1213333 34.17075,50.7326667 34.17075,46.5543333 C34.17075,42.376 37.5594167,38.98925 41.7358333,38.98925 M79.68775,38.98925 C83.8660833,38.98925 87.2528333,42.376 87.2528333,46.5543333 C87.2528333,50.7326667 83.8660833,54.1213333 79.68775,54.1213333 C75.5094167,54.1213333 72.1226667,50.7326667 72.1226667,46.5543333 C72.1226667,42.376 75.5094167,38.98925 79.68775,38.98925 M60.5,3 C28.7446667,3 3,28.7446667 3,60.5 C3,92.2553333 28.7446667,118 60.5,118 C92.25725,118 118,92.2553333 118,60.5 C118,28.7446667 92.25725,3 60.5,3" id="VeryHappy"></path>
                    </g>
                </g>
            </g>
        </g>
    </g>
</svg>