<?xml version="1.0" encoding="UTF-8"?>
<svg width="66px" height="50px" viewBox="0 0 66 50" version="1.1" xmlns="http://www.w3.org/2000/svg" xmlns:xlink="http://www.w3.org/1999/xlink">
    <!-- Generator: Sketch 64 (93537) - https://sketch.com -->
    <title>Butterfly</title>
    <desc>Created with Sketch.</desc>
    <g id="ButterflyExercise" stroke="none" stroke-width="1" fill="none" fill-rule="evenodd">
        <g id="Page1" transform="translate(-9.000000, -11.000000)" fill="#FFFFFF">
            <g id="Sider">
                <g id="FeedbackButton" transform="translate(6.000000, 6.000000)">
                    <path d="M56.772483,7.71353247 C55.2402507,7.71353247 53.8436422,8.04873664 52.7105705,8.45742265 C47.2801722,10.416031 42.5142856,15.9670847 40.5683778,22.5985934 C39.6933996,25.5818652 38.9803537,30.6766057 38.7449397,35.7763357 C43.0731104,35.4511105 47.2189374,34.6074302 50.5696183,33.243934 C49.6578992,30.4416452 47.4516298,27.980911 44.2832927,26.474987 C43.6047197,26.1524834 43.3157819,25.341008 43.6382855,24.6619815 C43.9607891,23.9834085 44.7722644,23.6940171 45.4517446,24.0169743 C49.206122,25.8014035 51.8600863,28.7075647 53.0539393,32.0582456 C59.3076063,28.6277326 65.6882789,21.9708227 66.0652135,16.1535108 C66.2398462,13.4564553 65.0210457,11.2080019 62.4423776,9.47029262 C60.5037272,8.16349531 58.5469332,7.71353247 56.772483,7.71353247 M20.175808,33.7446991 C23.6317221,34.9662212 27.8274442,35.6751848 32.1501718,35.8720435 C32.1179668,31.2744394 31.7310532,26.3565996 31.0148321,22.0824062 C29.8404836,15.0762308 23.7950151,10.227337 18.3251544,8.5299973 C13.8785962,7.15017174 9.9092164,7.68722416 7.7083901,9.96742898 C5.57424177,12.1777807 5.54249036,15.1501663 5.89220946,17.2548311 C6.86607056,23.1197701 11.7825496,29.6877761 17.3295209,32.5322488 C17.4365685,32.5871334 17.5449769,32.6415644 17.6542924,32.6950882 C18.8023327,28.9706478 21.5270573,25.9261412 25.5349924,24.0809307 C26.2176477,23.7670453 27.0259479,24.0655086 27.3398332,24.7481639 C27.6541722,25.4308192 27.3552553,26.2386658 26.6730536,26.5530047 C23.2810959,28.1147205 21.0489718,30.628525 20.175808,33.7446991 M19.7666684,36.4816706 C19.7462568,37.1557077 19.7811833,37.8492492 19.8719016,38.5595736 C20.7046958,45.0531905 24.2554106,50.6949624 27.049081,51.889269 C27.9054619,52.2562246 28.6144255,52.1968041 29.2816587,51.7051108 C31.0406868,50.4087461 31.9637457,45.0527369 32.1261315,38.6072007 C27.7126855,38.4121563 23.4144518,37.7036463 19.7666684,36.4816706 M38.6655611,38.5219255 C38.6065942,44.0666288 39.1949025,49.157287 40.8500581,50.9784571 C42.2652638,52.5342762 43.1819724,52.3011302 43.4836108,52.2240196 C46.2378188,51.5209527 49.2324303,44.7429338 50.7673842,38.4117027 C50.9637894,37.600681 51.0513325,36.7878449 51.0354568,35.985895 C47.4430116,37.3611846 43.1311701,38.2066793 38.6655611,38.5219255 M43.0604098,55 C41.8742679,55 40.3887555,54.5160178 38.8365651,52.8086991 C36.6171416,50.3683765 35.8727978,44.6621945 35.9177034,38.6489311 C35.5598197,38.6566422 35.2028431,38.6611781 34.8449593,38.6625389 C34.7102426,45.4106206 33.7191451,51.8157872 30.8959911,53.8959581 C29.4571987,54.9564552 27.7113247,55.1329023 25.9786049,54.3921873 C21.9321145,52.6608283 18.0643392,45.8587691 17.1725782,38.9056639 C17.0201714,37.7168004 17.000667,36.5596883 17.1081682,35.4452138 C16.7589027,35.287364 16.4178018,35.1236174 16.0875872,34.9539742 C9.84616717,31.7534321 4.30917488,24.3358491 3.20694737,17.7007116 C2.5592186,13.798917 3.43873266,10.4709156 5.75068889,8.07685932 C8.68043683,5.04187813 13.6826447,4.24038182 19.1320938,5.9309176 C24.9394266,7.73303691 32.2395294,12.9266604 33.6987334,21.6324434 C34.2108383,24.6864754 34.7891676,30.2393434 34.8558455,35.9282889 C35.2341409,35.9269281 35.6124363,35.921485 35.9898245,35.9124132 C36.2383926,30.3150932 37.0757227,24.8361606 37.9570511,21.8320237 C40.1723923,14.2810848 45.4721562,8.17528869 51.787058,5.89735183 C56.0825702,4.34833662 60.4062051,4.81598953 63.9637237,7.21322097 C67.3534135,9.49796171 69.0194554,12.6499695 68.7813198,16.3295043 C68.3127597,23.5593004 60.7155545,31.1796387 53.6885139,34.8029282 C53.8440958,36.1922792 53.7588206,37.622907 53.4127302,39.0530812 C52.5976262,42.4151019 49.5213682,53.4909008 44.1567407,54.8607474 C43.8324227,54.9437546 43.4636527,55 43.0604098,55" id="Butterfly"></path>
                </g>
            </g>
        </g>
    </g>
</svg>

