<?xml version="1.0" encoding="UTF-8"?>
<svg width="53px" height="24px" viewBox="0 0 53 24" version="1.1" xmlns="http://www.w3.org/2000/svg" xmlns:xlink="http://www.w3.org/1999/xlink">
    <!-- Generator: Sketch 64 (93537) - https://sketch.com -->
    <title>Group 2</title>
    <desc>Created with Sketch.</desc>
    <g id="ButterflyExercise" stroke="none" stroke-width="1" fill="none" fill-rule="evenodd">
        <g id="Page1" transform="translate(-57.000000, -84.000000)">
            <g id="Group-2" transform="translate(57.000000, 84.000000)">
                <rect id="Rectangle-22" fill="#0D4D54" x="0" y="0" width="53" height="24" rx="3"></rect>
                <path d="M12.9394366,13.9394366 L12.2711761,11.921905 L8.41611588,8.06684479 L7.06684479,9.41611588 L10.921905,13.2711761 L12.9394366,13.9394366 Z M5.27956687,6.27956687 C4.90681104,6.65232269 4.90681104,7.25608213 5.27956687,7.62883795 L6.27258238,8.62185347 L7.62185347,7.27258238 L6.62883795,6.27956687 C6.25608213,5.90681104 5.65232269,5.90681104 5.27956687,6.27956687 L5.27956687,6.27956687 Z M16.2499883,8.24984765 L10.9331552,8.24984765 L11.6831669,8.99985937 L16.2499883,8.99985937 L16.2499883,17.2499883 L7.99985937,17.2499883 L7.99985937,12.6831669 L7.24984765,11.9331552 L7.24984765,17.2499883 C7.24984765,17.6639947 7.5858529,18 7.99985937,18 L16.2499883,18 C16.6639947,18 17,17.6639947 17,17.2499883 L17,8.99985937 C17,8.5858529 16.6639947,8.24984765 16.2499883,8.24984765 L16.2499883,8.24984765 Z" id="EditIcon" fill="#2CE6CE"></path>
            </g>
        </g>
    </g>
</svg>