<?xml version="1.0" encoding="UTF-8"?>
<svg width="120px" height="120px" viewBox="0 0 120 120" version="1.1" xmlns="http://www.w3.org/2000/svg" xmlns:xlink="http://www.w3.org/1999/xlink">
    <!-- Generator: Sketch 64 (93537) - https://sketch.com -->
    <title>Happy</title>
    <desc>Created with Sketch.</desc>
    <g id="ButterflyExercise" stroke="none" stroke-width="1" fill="none" fill-rule="evenodd">
        <g id="Page1" transform="translate(-85.000000, -36.000000)" fill="#AEEA7E">
            <g id="Awesome" transform="translate(80.000000, 31.000000)">
                <g id="Mask-+-Smiley">
                    <path d="M92.572,83.416 C92.24,83.928 84.232,95.96 65.72,95.96 C47.372,95.96 38.658,84.136 38.296,83.632 C36.554,81.212 37.106,77.838 39.528,76.096 C41.936,74.364 45.284,74.9 47.034,77.288 C47.334,77.684 53.168,85.16 65.72,85.16 C78.224,85.16 83.458,77.622 83.508,77.544 C85.13,75.04 88.474,74.328 90.976,75.948 C93.48,77.57 94.194,80.914 92.572,83.416 M45.42,42.554 C49.78,42.554 53.316,46.088 53.316,50.448 C53.316,54.808 49.78,58.344 45.42,58.344 C41.06,58.344 37.526,54.808 37.526,50.448 C37.526,46.088 41.06,42.554 45.42,42.554 M85.022,42.554 C89.38,42.554 92.916,46.088 92.916,50.448 C92.916,54.808 89.38,58.344 85.022,58.344 C80.662,58.344 77.126,54.808 77.126,50.448 C77.126,46.088 80.662,42.554 85.022,42.554 M65,5 C31.864,5 5,31.864 5,65 C5,98.136 31.864,125 65,125 C98.136,125 125,98.136 125,65 C125,31.864 98.136,5 65,5" id="Happy"></path>
                </g>
            </g>
        </g>
    </g>
</svg>