<?xml version="1.0" encoding="UTF-8"?>
<svg width="24px" height="24px" viewBox="0 0 24 24" version="1.1" xmlns="http://www.w3.org/2000/svg" xmlns:xlink="http://www.w3.org/1999/xlink">
    <!-- Generator: Sketch 64 (93537) - https://sketch.com -->
    <title>FeedbackButton</title>
    <desc>Created with Sketch.</desc>
    <g id="ButterflyExercise" stroke="none" stroke-width="1" fill="none" fill-rule="evenodd">
        <g id="Page1" transform="translate(-6.000000, -6.000000)">
            <g id="Sider">
                <g id="FeedbackButton" transform="translate(6.000000, 6.000000)">
                    <rect id="BG" fill="#2CE6CE" x="0" y="0" width="24" height="24" rx="3"></rect>
                    <path d="M17.7089707,5.74226198 C17.2898426,5.74226198 16.9078131,5.83395401 16.5978717,5.94574633 C15.1124359,6.48150573 13.8087713,7.99994566 13.276486,9.8139342 C13.0371437,10.6299809 12.8420965,12.0236005 12.7777012,13.418585 C13.9616327,13.3296226 15.0956857,13.0988416 16.0122338,12.7258697 C15.7628414,11.9593293 15.1593366,11.2862179 14.292667,10.8742862 C14.1070495,10.7860683 14.0280132,10.5640966 14.1162311,10.3783551 C14.2044491,10.1927377 14.4264207,10.1135773 14.6122863,10.2019193 C15.6392619,10.6900336 16.3652295,11.4849874 16.6917971,12.4015355 C18.4024305,11.46315 20.1478051,9.64221326 20.2509121,8.05094082 C20.2986813,7.31318598 19.9652895,6.69814212 19.2599185,6.22280764 C18.7296184,5.86534519 18.1943553,5.74226198 17.7089707,5.74226198 M7.69828511,12.8628494 C8.64361881,13.1969856 9.79132017,13.3909161 10.9737628,13.444765 C10.9649534,12.1871325 10.8591167,10.8419024 10.663201,9.67273591 C10.3419687,7.75626074 8.6882861,6.42989019 7.19205575,5.96559846 C5.97574045,5.58815981 4.88995292,5.73506558 4.28793703,6.35879474 C3.70416028,6.96341623 3.69547497,7.7764851 3.79113743,8.35219692 C4.05752822,9.95649732 5.40238607,11.7531152 6.91970932,12.5311947 C6.94899121,12.5462079 6.97864533,12.561097 7.00854761,12.5757379 C7.32258352,11.5569514 8.06790699,10.7241544 9.16424096,10.219414 C9.35097507,10.1335535 9.57207819,10.2151954 9.65793866,10.4019295 C9.74392321,10.5886636 9.66215724,10.8096427 9.4755472,10.8956272 C8.54770819,11.3228203 7.93713107,12.0104485 7.69828511,12.8628494 M7.58636872,13.6115229 C7.5807853,13.7958996 7.59033914,13.9856115 7.61515431,14.1799143 C7.84295752,15.9561838 8.81422306,17.4994388 9.57840606,17.8261305 C9.81266121,17.9265078 10.0065917,17.9102539 10.1891073,17.7757557 C10.6702733,17.421147 10.9227676,15.9560597 10.9671867,14.1929422 C9.75992899,14.1395896 8.58418649,13.9457832 7.58636872,13.6115229 M12.7559879,14.169616 C12.739858,15.6863188 12.9007844,17.0788218 13.3535371,17.5769862 C13.7406536,18.0025663 13.9914109,17.9387913 14.0739213,17.9176984 C14.8273097,17.7253809 15.6464583,15.8713159 16.0663309,14.1394655 C16.1200557,13.917618 16.1440023,13.6952741 16.1396597,13.475908 C15.1569792,13.8521059 13.9775144,14.0833833 12.7559879,14.169616 M13.9581585,18.6770425 C13.6337003,18.6770425 13.2273519,18.5446536 12.8027645,18.0776322 C12.1956615,17.4101043 11.992053,15.8492304 12.0043366,14.2043572 C11.9064407,14.2064665 11.8087931,14.2077073 11.7108972,14.2080795 C11.6740467,16.0539555 11.402941,17.8060302 10.6306931,18.3750419 C10.2371246,18.6651312 9.75955676,18.7133967 9.28558712,18.5107809 C8.1787067,18.0371835 7.12071215,16.1765424 6.87677908,14.2745841 C6.83508961,13.9493814 6.82975434,13.632864 6.85916032,13.3280097 C6.76362193,13.2848313 6.67031691,13.2400399 6.57998971,13.1936355 C4.87270638,12.3181565 3.35811281,10.2891446 3.05660856,8.47416346 C2.87942828,7.40686322 3.1200113,6.49651891 3.75242578,5.84164671 C4.55383152,5.01145538 5.9221397,4.7922134 7.41278664,5.25464399 C9.0013294,5.74759724 10.9982057,7.16826542 11.3973576,9.54965269 C11.5374392,10.3850552 11.6956359,11.9039914 11.7138751,13.4601504 C11.8173543,13.4597782 11.9208335,13.4582893 12.0240646,13.4558078 C12.0920582,11.9247121 12.3211021,10.4260002 12.5621815,9.60424605 C13.1681678,7.53875582 14.6178697,5.86857117 16.3452533,5.24546238 C17.5202514,4.82174344 18.7029421,4.94966562 19.6760688,5.60540634 C20.6032874,6.23037627 21.0590179,7.09257916 20.9938781,8.09908224 C20.8657078,10.0767268 18.7875618,12.1612006 16.8653792,13.1523183 C16.9079372,13.5323625 16.8846109,13.9236977 16.7899411,14.3149088 C16.5669768,15.2345588 15.7254946,18.2642422 14.2580498,18.6389512 C14.1693356,18.6616571 14.068462,18.6770425 13.9581585,18.6770425" id="Butterfly" fill="#FFFFFF"></path>
                </g>
            </g>
        </g>
    </g>
</svg>