<?xml version="1.0" encoding="UTF-8"?>
<svg width="120px" height="120px" viewBox="0 0 120 120" version="1.1" xmlns="http://www.w3.org/2000/svg" xmlns:xlink="http://www.w3.org/1999/xlink">
    <!-- Generator: Sketch 64 (93537) - https://sketch.com -->
    <title>Neutral</title>
    <desc>Created with Sketch.</desc>
    <g id="ButterflyExercise" stroke="none" stroke-width="1" fill="none" fill-rule="evenodd">
        <g id="Page1" transform="translate(-85.000000, -36.000000)" fill="#FFAC73">
            <g id="Awesome" transform="translate(80.000000, 31.000000)">
                <g id="Mask-+-Smiley">
                    <path d="M88.042,90.476 L42.68,90.476 C39.698,90.476 37.282,87.46 37.282,84.476 C37.282,81.494 39.698,78.476 42.68,78.476 L88.042,78.476 C91.024,78.476 93.442,81.494 93.442,84.476 C93.442,87.46 91.024,90.476 88.042,90.476 M45.422,42.554 C49.782,42.554 53.318,46.088 53.318,50.448 C53.318,54.808 49.782,58.344 45.422,58.344 C41.064,58.344 37.528,54.808 37.528,50.448 C37.528,46.088 41.064,42.554 45.422,42.554 M85.022,42.554 C89.384,42.554 92.918,46.088 92.918,50.448 C92.918,54.808 89.384,58.344 85.022,58.344 C80.664,58.344 77.128,54.808 77.128,50.448 C77.128,46.088 80.664,42.554 85.022,42.554 M65.002,5 C31.864,5 5,31.862 5,65 C5,98.136 31.864,125 65.002,125 C98.14,125 125,98.136 125,65 C125,31.862 98.14,5 65.002,5" id="Neutral"></path>
                </g>
            </g>
        </g>
    </g>
</svg>