<?xml version="1.0" encoding="UTF-8"?>
<svg width="82px" height="82px" viewBox="0 0 82 82" version="1.1" xmlns="http://www.w3.org/2000/svg" xmlns:xlink="http://www.w3.org/1999/xlink">
    <!-- Generator: Sketch 64 (93537) - https://sketch.com -->
    <title>Neutral</title>
    <desc>Created with Sketch.</desc>
    <g id="ButterflyExercise" stroke="none" stroke-width="1" fill="none" fill-rule="evenodd">
        <g id="Page1" transform="translate(-728.000000, -320.000000)" fill="#FFAC73">
            <g id="Awesome" transform="translate(86.000000, 35.000000)">
                <g id="Mask-+-Smiley">
                    <path d="M698.745367,343.4086 L667.748,343.4086 C665.7103,343.4086 664.059367,341.347667 664.059367,339.3086 C664.059367,337.2709 665.7103,335.2086 667.748,335.2086 L698.745367,335.2086 C700.783067,335.2086 702.435367,337.2709 702.435367,339.3086 C702.435367,341.347667 700.783067,343.4086 698.745367,343.4086 M669.6217,310.6619 C672.601033,310.6619 675.0173,313.0768 675.0173,316.056133 C675.0173,319.035467 672.601033,321.451733 669.6217,321.451733 C666.643733,321.451733 664.227467,319.035467 664.227467,316.056133 C664.227467,313.0768 666.643733,310.6619 669.6217,310.6619 M696.6817,310.6619 C699.6624,310.6619 702.0773,313.0768 702.0773,316.056133 C702.0773,319.035467 699.6624,321.451733 696.6817,321.451733 C693.703733,321.451733 691.287467,319.035467 691.287467,316.056133 C691.287467,313.0768 693.703733,310.6619 696.6817,310.6619 M683.001367,285 C660.357067,285 642,303.3557 642,326 C642,348.642933 660.357067,367 683.001367,367 C705.645667,367 724,348.642933 724,326 C724,303.3557 705.645667,285 683.001367,285" id="Neutral"></path>
                </g>
            </g>
        </g>
    </g>
</svg>