<?xml version="1.0" encoding="UTF-8"?>
<svg width="32px" height="32px" viewBox="0 0 32 32" version="1.1" xmlns="http://www.w3.org/2000/svg" xmlns:xlink="http://www.w3.org/1999/xlink">
    <!-- Generator: Sketch 64 (93537) - https://sketch.com -->
    <title>Shape</title>
    <desc>Created with Sketch.</desc>
    <g id="ButterflyExercise" stroke="none" stroke-width="1" fill="none" fill-rule="evenodd">
        <g id="Page2" transform="translate(-123.000000, -80.000000)" fill="#2CE6CE">
            <g id="Thank-you" transform="translate(75.000000, 40.000000)">
                <path d="M64,40 C55.164,40 48,47.164 48,56 C48,64.836 55.164,72 64,72 C72.836,72 80,64.836 80,56 C80,47.164 72.836,40 64,40 L64,40 Z M64,70 C56.28,70 50,63.72 50,56 C50,48.28 56.28,42 64,42 C71.72,42 78,48.28 78,56 C78,63.72 71.718,70 64,70 L64,70 Z M71.008,49.636 C70.362,49.212 69.494,49.394 69.07,50.042 L62.318,60.36 L59.09,57.372 C58.522,56.848 57.636,56.882 57.11,57.45 C56.584,58.018 56.62,58.902 57.188,59.428 L61.65,63.556 C61.666,63.57 61.686,63.574 61.702,63.588 C61.742,63.62 61.766,63.664 61.808,63.694 C61.868,63.734 61.936,63.742 62,63.77 C62.076,63.806 62.15,63.84 62.23,63.862 C62.308,63.882 62.384,63.892 62.464,63.898 C62.578,63.91 62.688,63.91 62.8,63.894 C62.846,63.886 62.89,63.874 62.936,63.862 C63.074,63.828 63.202,63.774 63.328,63.698 C63.35,63.684 63.368,63.668 63.39,63.654 C63.472,63.598 63.56,63.556 63.63,63.48 C63.68,63.426 63.702,63.356 63.742,63.296 C63.744,63.294 63.748,63.292 63.748,63.29 L71.412,51.576 C71.836,50.928 71.654,50.06 71.008,49.636 L71.008,49.636 Z" id="Shape"></path>
            </g>
        </g>
    </g>
</svg>