<?xml version="1.0" encoding="UTF-8"?>
<svg width="82px" height="82px" viewBox="0 0 82 82" version="1.1" xmlns="http://www.w3.org/2000/svg" xmlns:xlink="http://www.w3.org/1999/xlink">
    <!-- Generator: Sketch 64 (93537) - https://sketch.com -->
    <title>Unhappy</title>
    <desc>Created with Sketch.</desc>
    <g id="ButterflyExercise" stroke="none" stroke-width="1" fill="none" fill-rule="evenodd">
        <g id="Page1" transform="translate(-622.000000, -235.000000)" fill="#F98371">
            <g id="Awesome" transform="translate(86.000000, 35.000000)">
                <g id="Mask-+-Smiley">
                    <path d="M594.899233,261.461733 C593.253767,262.645267 590.963233,262.279 589.768767,260.6472 C589.563767,260.3766 585.5772,255.268 577,255.268 C568.507533,255.268 564.967867,260.295967 564.8189,260.510533 C564.1178,261.595667 562.9452,262.1806 561.745267,262.1806 C561.053733,262.1806 560.355367,261.986533 559.729433,261.582 C558.019733,260.473633 557.542767,258.169433 558.6525,256.459733 C558.878,256.109867 564.348767,247.888 577,247.888 C589.5378,247.888 595.493733,255.967733 595.739733,256.310767 C596.9301,257.9658 596.5529,260.271367 594.899233,261.461733 M563.620333,225.6619 C566.601033,225.6619 569.015933,228.0768 569.015933,231.056133 C569.015933,234.035467 566.601033,236.451733 563.620333,236.451733 C560.642367,236.451733 558.2261,234.035467 558.2261,231.056133 C558.2261,228.0768 560.642367,225.6619 563.620333,225.6619 M590.6817,225.6619 C593.661033,225.6619 596.074567,228.0768 596.074567,231.056133 C596.074567,234.035467 593.661033,236.451733 590.6817,236.451733 C587.701,236.451733 585.2861,234.035467 585.2861,231.056133 C585.2861,228.0768 587.701,225.6619 590.6817,225.6619 M577,200 C554.357067,200 536,218.3557 536,241 C536,263.642933 554.357067,282 577,282 C599.6443,282 618,263.642933 618,241 C618,218.3557 599.6443,200 577,200" id="Unhappy"></path>
                </g>
            </g>
        </g>
    </g>
</svg>