<?xml version="1.0" encoding="UTF-8"?>
<svg width="120px" height="120px" viewBox="0 0 120 120" version="1.1" xmlns="http://www.w3.org/2000/svg" xmlns:xlink="http://www.w3.org/1999/xlink">
    <!-- Generator: Sketch 64 (93537) - https://sketch.com -->
    <title>Unhappy</title>
    <desc>Created with Sketch.</desc>
    <g id="ButterflyExercise" stroke="none" stroke-width="1" fill="none" fill-rule="evenodd">
        <g id="Page1" transform="translate(-85.000000, -36.000000)" fill="#F98371">
            <g id="Awesome" transform="translate(80.000000, 31.000000)">
                <g id="Mask-+-Smiley">
                    <path d="M91.194,94.944 C88.786,96.676 85.434,96.14 83.686,93.752 C83.386,93.356 77.552,85.88 65,85.88 C52.572,85.88 47.392,93.238 47.174,93.552 C46.148,95.14 44.432,95.996 42.676,95.996 C41.664,95.996 40.642,95.712 39.726,95.12 C37.224,93.498 36.526,90.126 38.15,87.624 C38.48,87.112 46.486,75.08 65,75.08 C83.348,75.08 92.064,86.904 92.424,87.406 C94.166,89.828 93.614,93.202 91.194,94.944 M45.42,42.554 C49.782,42.554 53.316,46.088 53.316,50.448 C53.316,54.808 49.782,58.344 45.42,58.344 C41.062,58.344 37.526,54.808 37.526,50.448 C37.526,46.088 41.062,42.554 45.42,42.554 M85.022,42.554 C89.382,42.554 92.914,46.088 92.914,50.448 C92.914,54.808 89.382,58.344 85.022,58.344 C80.66,58.344 77.126,54.808 77.126,50.448 C77.126,46.088 80.66,42.554 85.022,42.554 M65,5 C31.864,5 5,31.862 5,65 C5,98.136 31.864,125 65,125 C98.138,125 125,98.136 125,65 C125,31.862 98.138,5 65,5" id="Unhappy"></path>
                </g>
            </g>
        </g>
    </g>
</svg>