<?xml version="1.0" encoding="UTF-8"?>
<svg width="130px" height="130px" viewBox="0 0 130 130" version="1.1" xmlns="http://www.w3.org/2000/svg" xmlns:xlink="http://www.w3.org/1999/xlink">
    <!-- Generator: Sketch 64 (93537) - https://sketch.com -->
    <title>VeryHappy</title>
    <desc>Created with Sketch.</desc>
    <g id="ButterflyExercise" stroke="none" stroke-width="1" fill="none" fill-rule="evenodd">
        <g id="Page1" transform="translate(-82.000000, -60.000000)" fill="#34EA7E">
            <g id="Awesome" transform="translate(79.000000, 57.000000)">
                <g id="Mask-+-Smiley">
                    <g id="Group">
                        <path d="M68.4766667,109.623833 C51.1585,109.623833 37.1185,95.599 37.1185,78.2656667 L99.8348333,78.2656667 C99.8348333,95.599 85.7948333,109.623833 68.4766667,109.623833 M46.7883333,43.6835 C51.5138333,43.6835 55.3423333,47.512 55.3423333,52.2353333 C55.3423333,56.9586667 51.5138333,60.7893333 46.7883333,60.7893333 C42.0671667,60.7893333 38.2365,56.9586667 38.2365,52.2353333 C38.2365,47.512 42.0671667,43.6835 46.7883333,43.6835 M89.6905,43.6835 C94.4138333,43.6835 98.2423333,47.512 98.2423333,52.2353333 C98.2423333,56.9586667 94.4138333,60.7893333 89.6905,60.7893333 C84.9671667,60.7893333 81.1386667,56.9586667 81.1386667,52.2353333 C81.1386667,47.512 84.9671667,43.6835 89.6905,43.6835 M68,3 C32.1026667,3 3,32.1026667 3,68 C3,103.897333 32.1026667,133 68,133 C103.8995,133 133,103.897333 133,68 C133,32.1026667 103.8995,3 68,3" id="VeryHappy"></path>
                    </g>
                </g>
            </g>
        </g>
    </g>
</svg>