<?xml version="1.0" encoding="UTF-8"?>
<svg width="120px" height="120px" viewBox="0 0 120 120" version="1.1" xmlns="http://www.w3.org/2000/svg" xmlns:xlink="http://www.w3.org/1999/xlink">
    <!-- Generator: Sketch 64 (93537) - https://sketch.com -->
    <title>VeryUnhappy</title>
    <desc>Created with Sketch.</desc>
    <g id="ButterflyExercise" stroke="none" stroke-width="1" fill="none" fill-rule="evenodd">
        <g id="Page1" transform="translate(-85.000000, -36.000000)" fill="#F45D6F">
            <g id="Awesome" transform="translate(80.000000, 31.000000)">
                <g id="Mask-+-Smiley">
                    <path d="M36.168,96.476 C36.168,80.476 49.126,67.34 65.114,67.34 C78.606,67.34 89.944,76.346 93.15,88.908 C93.268,89.254 93.35,89.75 93.396,90.104 C93.828,92.106 94.058,94.476 94.058,96.476 L36.168,96.476 Z M45.42,42.554 C49.782,42.554 53.314,46.088 53.314,50.448 C53.314,54.808 49.782,58.344 45.42,58.344 C41.06,58.344 37.526,54.808 37.526,50.448 C37.526,46.088 41.06,42.554 45.42,42.554 L45.42,42.554 Z M85.022,42.554 C89.38,42.554 92.914,46.088 92.914,50.448 C92.914,54.808 89.38,58.344 85.022,58.344 C80.66,58.344 77.126,54.808 77.126,50.448 C77.126,46.088 80.66,42.554 85.022,42.554 L85.022,42.554 Z M65,5 C31.864,5 5,31.862 5,65 C5,98.136 31.864,125 65,125 C98.136,125 125,98.136 125,65 C125,31.862 98.136,5 65,5 L65,5 Z" id="VeryUnhappy"></path>
                </g>
            </g>
        </g>
    </g>
</svg>