<?xml version="1.0" encoding="UTF-8"?>
<svg width="120px" height="120px" viewBox="0 0 120 120" version="1.1" xmlns="http://www.w3.org/2000/svg" xmlns:xlink="http://www.w3.org/1999/xlink">
    <!-- Generator: Sketch 64 (93537) - https://sketch.com -->
    <title>VeryHappy</title>
    <desc>Created with Sketch.</desc>
    <g id="ButterflyExercise" stroke="none" stroke-width="1" fill="none" fill-rule="evenodd">
        <g id="Page1" transform="translate(-85.000000, -36.000000)" fill="#34EA7E">
            <g id="Awesome" transform="translate(80.000000, 31.000000)">
                <g id="Mask-+-Smiley">
                    <path d="M65.44,103.422 C49.454,103.422 36.494,90.476 36.494,74.476 L94.386,74.476 C94.386,90.476 81.426,103.422 65.44,103.422 M45.42,42.554 C49.782,42.554 53.316,46.088 53.316,50.448 C53.316,54.808 49.782,58.344 45.42,58.344 C41.062,58.344 37.526,54.808 37.526,50.448 C37.526,46.088 41.062,42.554 45.42,42.554 M85.022,42.554 C89.382,42.554 92.916,46.088 92.916,50.448 C92.916,54.808 89.382,58.344 85.022,58.344 C80.662,58.344 77.128,54.808 77.128,50.448 C77.128,46.088 80.662,42.554 85.022,42.554 M65,5 C31.864,5 5,31.864 5,65 C5,98.136 31.864,125 65,125 C98.138,125 125,98.136 125,65 C125,31.864 98.138,5 65,5" id="VeryHappy"></path>
                </g>
            </g>
        </g>
    </g>
</svg>