<?xml version="1.0" encoding="UTF-8"?>
<svg width="80px" height="80px" viewBox="0 0 80 80" version="1.1" xmlns="http://www.w3.org/2000/svg" xmlns:xlink="http://www.w3.org/1999/xlink">
    <!-- Generator: Sketch 64 (93537) - https://sketch.com -->
    <title>Group</title>
    <desc>Created with Sketch.</desc>
    <g id="ButterflyExercise" stroke="none" stroke-width="1" fill="none" fill-rule="evenodd">
        <g id="Page1" transform="translate(-80.000000, -31.000000)">
            <g id="Awesome" transform="translate(80.000000, 31.000000)">
                <g id="Mask-+-Smiley">
                    <g id="Group">
                        <rect id="Rectangle-Copy" fill="#FFFFFF" x="0" y="0" width="80" height="80" rx="3"></rect>
                        <path d="M40.2707692,63.6443077 C30.4332308,63.6443077 22.4578462,55.6775385 22.4578462,45.8313846 L58.0836923,45.8313846 C58.0836923,55.6775385 50.1083077,63.6443077 40.2707692,63.6443077 M27.9507692,26.1870769 C30.6350769,26.1870769 32.8098462,28.3618462 32.8098462,31.0449231 C32.8098462,33.728 30.6350769,35.904 27.9507692,35.904 C25.2689231,35.904 23.0929231,33.728 23.0929231,31.0449231 C23.0929231,28.3618462 25.2689231,26.1870769 27.9507692,26.1870769 M52.3212308,26.1870769 C55.0043077,26.1870769 57.1790769,28.3618462 57.1790769,31.0449231 C57.1790769,33.728 55.0043077,35.904 52.3212308,35.904 C49.6381538,35.904 47.4633846,33.728 47.4633846,31.0449231 C47.4633846,28.3618462 49.6381538,26.1870769 52.3212308,26.1870769 M40,3.07692308 C19.6086154,3.07692308 3.07692308,19.6086154 3.07692308,40 C3.07692308,60.3913846 19.6086154,76.9230769 40,76.9230769 C60.3926154,76.9230769 76.9230769,60.3913846 76.9230769,40 C76.9230769,19.6086154 60.3926154,3.07692308 40,3.07692308" id="VeryHappy" fill="#34EA7E"></path>
                    </g>
                </g>
            </g>
        </g>
    </g>
</svg>