<?xml version="1.0" encoding="UTF-8"?>
<svg width="80px" height="82px" viewBox="0 0 80 82" version="1.1" xmlns="http://www.w3.org/2000/svg" xmlns:xlink="http://www.w3.org/1999/xlink">
    <!-- Generator: Sketch 64 (93537) - https://sketch.com -->
    <title>Group</title>
    <desc>Created with Sketch.</desc>
    <defs>
        <linearGradient x1="50%" y1="0%" x2="49.7463361%" y2="77.0778125%" id="linearGradient-1">
            <stop stop-color="#0D4D54" stop-opacity="0" offset="0%"></stop>
            <stop stop-color="#0D4D54" offset="100%"></stop>
        </linearGradient>
        <rect id="path-2" x="0" y="0" width="1024" height="2630"></rect>
    </defs>
    <g id="ButterflyExercise" stroke="none" stroke-width="1" fill="none" fill-rule="evenodd">
        <g id="Page1" transform="translate(-80.000000, -31.000000)">
            <g id="BG">
                <use fill="#166E78" xlink:href="#path-2"></use>
                <use fill="url(#linearGradient-1)" xlink:href="#path-2"></use>
            </g>
            <!-- <rect id="Rectangle-22" fill="#0D4D54" x="57" y="84" width="53" height="24" rx="3"></!--> -->
            <g id="Awesome" transform="translate(80.000000, 31.000000)">
                <g id="Mask-+-Smiley">
                    <circle id="Oval-1" cx="54.4848485" cy="52.5151515" r="48.1000481"></circle>
                    <g id="Group">
                        <rect id="Rectangle-Copy" fill="#FFFFFF" x="0" y="0" width="80" height="82" rx="3"></rect>
                        <path d="M56.9673846,52.6162462 C56.7630769,52.9392 51.8350769,60.5286154 40.4430769,60.5286154 C29.152,60.5286154 23.7895385,53.0704 23.5667692,52.7524923 C22.4947692,51.2260308 22.8344615,49.0978154 24.3249231,47.9990154 C25.8067692,46.9065231 27.8670769,47.2446154 28.944,48.7508923 C29.1286154,49.0006769 32.7187692,53.7163077 40.4430769,53.7163077 C48.1378462,53.7163077 51.3587692,48.9615692 51.3895385,48.9123692 C52.3876923,47.3329231 54.4455385,46.8838154 55.9852308,47.9056615 C57.5261538,48.9287692 57.9655385,51.0380615 56.9673846,52.6162462 M27.9507692,26.8417538 C30.6338462,26.8417538 32.8098462,29.0708923 32.8098462,31.8210462 C32.8098462,34.5712 30.6338462,36.8016 27.9507692,36.8016 C25.2676923,36.8016 23.0929231,34.5712 23.0929231,31.8210462 C23.0929231,29.0708923 25.2676923,26.8417538 27.9507692,26.8417538 M52.3212308,26.8417538 C55.0030769,26.8417538 57.1790769,29.0708923 57.1790769,31.8210462 C57.1790769,34.5712 55.0030769,36.8016 52.3212308,36.8016 C49.6381538,36.8016 47.4621538,34.5712 47.4621538,31.8210462 C47.4621538,29.0708923 49.6381538,26.8417538 52.3212308,26.8417538 M40,3.15384615 C19.6086154,3.15384615 3.07692308,20.0988308 3.07692308,41 C3.07692308,61.9011692 19.6086154,78.8461538 40,78.8461538 C60.3913846,78.8461538 76.9230769,61.9011692 76.9230769,41 C76.9230769,20.0988308 60.3913846,3.15384615 40,3.15384615" id="Happy" fill="#AEEA7E"></path>
                    </g>
                </g>
            </g>
        </g>
    </g>
</svg>