<?xml version="1.0" encoding="UTF-8"?>
<svg width="82px" height="82px" viewBox="0 0 82 82" version="1.1" xmlns="http://www.w3.org/2000/svg" xmlns:xlink="http://www.w3.org/1999/xlink">
    <!-- Generator: Sketch 64 (93537) - https://sketch.com -->
    <title>Happy</title>
    <desc>Created with Sketch.</desc>
    <g id="ButterflyExercise" stroke="none" stroke-width="1" fill="none" fill-rule="evenodd">
        <g id="Page1" transform="translate(-658.000000, -456.000000)" fill="#AEEA7E">
            <g id="Awesome" transform="translate(86.000000, 35.000000)">
                <g id="Mask-+-Smiley">
                    <path d="M631.840867,474.584267 C631.614,474.934133 626.141867,483.156 613.492,483.156 C600.9542,483.156 594.999633,475.076267 594.752267,474.731867 C593.5619,473.0782 593.9391,470.772633 595.594133,469.582267 C597.2396,468.398733 599.5274,468.765 600.723233,470.3968 C600.928233,470.6674 604.9148,475.776 613.492,475.776 C622.0364,475.776 625.612967,470.625033 625.647133,470.571733 C626.7555,468.860667 629.040567,468.374133 630.750267,469.481133 C632.461333,470.5895 632.949233,472.874567 631.840867,474.584267 M599.620333,446.6619 C602.599667,446.6619 605.015933,449.0768 605.015933,452.056133 C605.015933,455.035467 602.599667,457.451733 599.620333,457.451733 C596.641,457.451733 594.2261,455.035467 594.2261,452.056133 C594.2261,449.0768 596.641,446.6619 599.620333,446.6619 M626.6817,446.6619 C629.659667,446.6619 632.075933,449.0768 632.075933,452.056133 C632.075933,455.035467 629.659667,457.451733 626.6817,457.451733 C623.702367,457.451733 621.2861,455.035467 621.2861,452.056133 C621.2861,449.0768 623.702367,446.6619 626.6817,446.6619 M613,421 C590.357067,421 572,439.357067 572,462 C572,484.642933 590.357067,503 613,503 C635.642933,503 654,484.642933 654,462 C654,439.357067 635.642933,421 613,421" id="Happy"></path>
                </g>
            </g>
        </g>
    </g>
</svg>