<?xml version="1.0" encoding="UTF-8"?>
<svg width="82px" height="82px" viewBox="0 0 82 82" version="1.1" xmlns="http://www.w3.org/2000/svg" xmlns:xlink="http://www.w3.org/1999/xlink">
    <!-- Generator: Sketch 64 (93537) - https://sketch.com -->
    <title>VeryUnhappy</title>
    <desc>Created with Sketch.</desc>
    <g id="ButterflyExercise" stroke="none" stroke-width="1" fill="none" fill-rule="evenodd">
        <g id="Page1" transform="translate(-575.000000, -93.000000)" fill="#F45D6F">
            <g id="Awesome" transform="translate(86.000000, 35.000000)">
                <g id="Mask-+-Smiley">
                    <path d="M510.298133,120.5086 C510.298133,109.575267 519.152767,100.599 530.0779,100.599 C539.297433,100.599 547.045067,106.7531 549.235833,115.337133 C549.316467,115.573567 549.3725,115.9125 549.403933,116.1544 C549.699133,117.522433 549.8563,119.141933 549.8563,120.5086 L510.298133,120.5086 Z M516.620333,83.6619 C519.601033,83.6619 522.014567,86.0768 522.014567,89.0561333 C522.014567,92.0354667 519.601033,94.4517333 516.620333,94.4517333 C513.641,94.4517333 511.2261,92.0354667 511.2261,89.0561333 C511.2261,86.0768 513.641,83.6619 516.620333,83.6619 L516.620333,83.6619 Z M543.6817,83.6619 C546.659667,83.6619 549.074567,86.0768 549.074567,89.0561333 C549.074567,92.0354667 546.659667,94.4517333 543.6817,94.4517333 C540.701,94.4517333 538.2861,92.0354667 538.2861,89.0561333 C538.2861,86.0768 540.701,83.6619 543.6817,83.6619 L543.6817,83.6619 Z M530,58 C507.357067,58 489,76.3557 489,99 C489,121.642933 507.357067,140 530,140 C552.642933,140 571,121.642933 571,99 C571,76.3557 552.642933,58 530,58 L530,58 Z" id="VeryUnhappy"></path>
                </g>
            </g>
        </g>
    </g>
</svg>